<svg xmlns="http://www.w3.org/2000/svg" xmlns:xlink="http://www.w3.org/1999/xlink" id="Layer_1" x="0" y="0" version="1.1" viewBox="0 0 60 45" xml:space="preserve" style="enable-background:new 0 0 60 45"><style type="text/css">.st0{fill:#0056a7}.st1,.st2{fill-rule:evenodd;clip-rule:evenodd;fill:#fff}.st2{fill:#fcb23d}</style><rect width="60" height="45" class="st0"/><g><path d="M16.6,29.7l-0.1,0.6l-1.6,6.2c-0.1,0.6,0.4,1.2,0.9,1.2c0.1,0,0.2,0,0.3,0l6.2-1.6l0.6-0.1l0.6-0.2l0.5-0.1 l-1.2-0.5l-1.1-0.6c-0.2-0.1-0.4-0.2-0.5-0.4l-0.7-1.3l-0.2-0.3c-0.1-0.2-0.2-0.3-0.4-0.4L19.7,32l-1.3-0.7 c-0.2-0.1-0.3-0.3-0.4-0.4l-0.5-1.1l-0.6-1.2l-0.1,0.6L16.6,29.7z" class="st1"/><polygon points="34.7 10.3 32.4 12.5 17.5 27.4 20.6 30.5 35.5 15.6 36.8 16.8 21.9 31.7 25 34.8 39.9 19.9 42.1 17.7" class="st2"/><path d="M44.6,13.4l-5.8-5.9c-0.2-0.2-0.4-0.3-0.7-0.3c-0.2,0-0.5,0.1-0.6,0.3l-1.2,1.2l7.4,7.5l1.6-1.6 C45.4,14.3,44.9,13.8,44.6,13.4L44.6,13.4z" class="st1"/></g></svg>