<svg xmlns="http://www.w3.org/2000/svg" xmlns:xlink="http://www.w3.org/1999/xlink" id="Layer_1" x="0" y="0" version="1.1" viewBox="0 0 58 66" xml:space="preserve" style="enable-background:new 0 0 58 66"><style type="text/css">.st0{fill:#367f00}.st1{fill:#8bbf0d}</style><g><path d="M51.29,44.39H1.76C0.79,44.39,0,43.61,0,42.64V18.22c0-0.97,0.79-1.76,1.76-1.76h49.53 c0.97,0,1.76,0.79,1.76,1.76v24.42C53.04,43.61,52.26,44.39,51.29,44.39z" class="st0"/><path d="M45.49,42.24H7.56c0-2.8-2.27-5.06-5.06-5.06V23.67c2.8,0,5.06-2.27,5.06-5.06h37.93 c0,2.8,2.27,5.06,5.06,5.06v13.51C47.75,37.18,45.49,39.45,45.49,42.24z" class="st1"/><ellipse cx="26.52" cy="30.43" class="st0" rx="8.96" ry="10.34"/><g><ellipse cx="11.66" cy="30.43" class="st0" rx="3.42" ry="3.94"/><ellipse cx="41.38" cy="30.43" class="st0" rx="3.42" ry="3.94"/></g><path d="M27.3,29.29c-1.53-0.53-1.81-0.81-1.81-1.18c0-0.34,0.35-0.75,1.33-0.75c1.04,0,1.68,0.31,1.96,0.44l0.45,0.22 l0.84-1.84l-0.43-0.21c-0.58-0.29-1.23-0.46-1.97-0.53v-1.43h-2.05v1.54c-1.6,0.35-2.6,1.39-2.6,2.73c0,1.69,1.53,2.42,3.18,2.96 c1.42,0.48,1.61,0.9,1.61,1.25c0,0.54-0.64,0.92-1.56,0.92c-0.79,0-1.61-0.2-2.24-0.56l-0.48-0.27l-0.8,1.86l0.37,0.22 c0.59,0.35,1.49,0.6,2.4,0.68v1.48h2.07v-1.58c1.88-0.41,2.72-1.7,2.72-2.86C30.3,30.55,28.7,29.77,27.3,29.29z" class="st1"/></g><g><path d="M56.29,48.39H6.76C5.79,48.39,5,47.61,5,46.64V22.22c0-0.97,0.79-1.76,1.76-1.76h49.53 c0.97,0,1.76,0.79,1.76,1.76v24.42C58.04,47.61,57.26,48.39,56.29,48.39z" class="st0"/><path d="M50.49,46.24H12.56c0-2.8-2.27-5.06-5.06-5.06V27.67c2.8,0,5.06-2.27,5.06-5.06h37.93 c0,2.8,2.27,5.06,5.06,5.06v13.51C52.75,41.18,50.49,43.45,50.49,46.24z" class="st1"/><ellipse cx="31.52" cy="34.43" class="st0" rx="8.96" ry="10.34"/><g><ellipse cx="16.66" cy="34.43" class="st0" rx="3.42" ry="3.94"/><ellipse cx="46.38" cy="34.43" class="st0" rx="3.42" ry="3.94"/></g><path d="M32.3,33.29c-1.53-0.53-1.81-0.81-1.81-1.18c0-0.34,0.35-0.75,1.33-0.75c1.04,0,1.68,0.31,1.96,0.44l0.45,0.22 l0.84-1.84l-0.43-0.21c-0.58-0.29-1.23-0.46-1.97-0.53v-1.43h-2.05v1.54c-1.6,0.35-2.6,1.39-2.6,2.73c0,1.69,1.53,2.42,3.18,2.96 c1.42,0.48,1.61,0.9,1.61,1.25c0,0.54-0.64,0.92-1.56,0.92c-0.79,0-1.61-0.2-2.24-0.56l-0.48-0.27l-0.8,1.86l0.37,0.22 c0.59,0.35,1.49,0.6,2.4,0.68v1.48h2.07v-1.58c1.88-0.41,2.72-1.7,2.72-2.86C35.3,34.55,33.7,33.77,32.3,33.29z" class="st1"/></g></svg>