<svg xmlns="http://www.w3.org/2000/svg" xmlns:xlink="http://www.w3.org/1999/xlink" id="Layer_1" x="0" y="0" version="1.1" viewBox="0 0 100 62" xml:space="preserve" style="enable-background:new 0 0 100 62"><style type="text/css">.st0{fill:#fff}.st1{fill:#fcb23d}.st2{fill:#0056a7}</style><g><g><g><rect width="2.6" height="5.8" x="39.1" y="4.2" class="st0"/><rect width="2.6" height="5.8" x="58.3" y="4.2" class="st0"/></g><path d="M63.2,3.3c0,1.1-0.9,1.5-1.9,1.5H38.8c-1.1,0-1.9-0.4-1.9-1.5l0,0c0-1.1,0.9-1.7,1.9-1.9 C41.7,0.7,45.5,0,50,0c4.9,0,8,0.8,11.2,1.4C62.3,1.6,63.2,2.3,63.2,3.3L63.2,3.3z" class="st1"/></g><path d="M78,10.7c1.6,0.2,3.2,1.8,3.5,3.7c2.5,14.1,2.5,28.2,0,42.3c-0.3,1.8-1.9,3.5-3.5,3.7 c-18.6,2.1-37.3,2.1-55.9,0c-1.6-0.2-3.2-1.8-3.5-3.7c-2.5-14.1-2.5-28.2,0-42.3c0.3-1.8,1.9-3.5,3.5-3.7 C40.7,8.6,59.3,8.6,78,10.7z" class="st1"/><g><polygon points="33.9 61.5 27.1 60.9 27.1 10.2 33.9 9.6" class="st0"/><g><path d="M34.6,46.7h-8.2v-4.9h8.2V46.7z M27.3,45.9h6.5v-3.3h-6.5C27.3,42.6,27.3,45.9,27.3,45.9z" class="st2"/></g></g><g><polygon points="66.2 61.5 73 60.9 73 10.2 66.2 9.6" class="st0"/><g><path d="M65.5,41.8h8.2v4.9h-8.2V41.8z M72.8,42.6h-6.5v3.3h6.5V42.6z" class="st2"/></g></g><g><path d="M81.9,17c-0.1-0.9-0.3-1.8-0.4-2.7c-0.3-1.8-1.9-3.5-3.5-3.7c-0.4,0-0.7-0.1-1.1-0.1 c-0.6,0.7-0.9,1.6-0.9,2.6c0,2.3,1.9,4.2,4.2,4.2C80.8,17.4,81.4,17.3,81.9,17z" class="st0"/><path d="M18.5,14.4c-0.1,0.9-0.3,1.8-0.4,2.7c0.5,0.2,1.1,0.4,1.7,0.4c2.3,0,4.2-1.9,4.2-4.2c0-1-0.3-1.9-0.9-2.6 c-0.4,0-0.7,0.1-1.1,0.1C20.5,10.9,18.9,12.6,18.5,14.4z" class="st0"/><path d="M81.9,54c-0.5-0.2-1.1-0.4-1.7-0.4c-2.3,0-4.2,1.9-4.2,4.2c0,1,0.3,1.9,0.9,2.6c0.4,0,0.7-0.1,1.1-0.1 c1.6-0.2,3.2-1.8,3.5-3.7C81.6,55.8,81.8,54.9,81.9,54z" class="st0"/><path d="M19.8,53.7c-0.6,0-1.2,0.1-1.7,0.4c0.1,0.9,0.3,1.8,0.4,2.7c0.3,1.8,1.9,3.5,3.5,3.7c0.4,0,0.7,0.1,1.1,0.1 c0.6-0.7,0.9-1.6,0.9-2.6C24,55.6,22.1,53.7,19.8,53.7z" class="st0"/></g></g></svg>